<?xml version="1.0" encoding="UTF-8"?>
<!DOCTYPE svg  PUBLIC '-//W3C//DTD SVG 20010904//EN'  'http://www.w3.org/TR/2001/REC-SVG-20010904/DTD/svg10.dtd'>
<svg width="31.475in" height="6.3117in" viewBox="0 0 3022 606" xmlns="http://www.w3.org/2000/svg">
<path d="m699.6 469c4.65 11.38 10.78 22.17 18.14 32 24.3 32.43 61.08 48.62 100.26 54.27 8.88 1.28 19.08 2.72 28 2.73h32l18-1.87c39.22-5.45 77.64-22.19 88.37-64.13 1.39-5.43 2.56-12.41 2.63-18 0.15-12.72 0.15-21.66-4.08-34-12.25-35.72-54.02-48.26-86.92-57.71-50.24-14.43-102.72-22-152-39.6-31.25-11.16-60.38-25.55-82.83-50.69-26.94-30.17-33.62-75.98-33.17-115l0.91-10c2.48-36.13 12.82-69.86 36.53-98 18.51-21.98 43.03-38.65 69.56-49.4 26.11-10.57 54.07-15.77 82-18.56h9l12-1.04h31l21 1 10 0.91 22 1.92c30.55 3.06 60.99 8 91 14.59l36 8.46 27 7.12v130h-50c-3.34-16.58-8.49-32.95-16.26-48-4.23-8.2-10.42-17.34-16.78-24-8.79-9.21-14.1-14.19-24.96-20.94-23.04-14.3-59.92-23.02-87-23.06h-34l-10 0.92c-31.18 2.49-67.95 13.58-83.68 43.08-5.11 9.58-7.81 22.18-8.28 33-0.32 7.35 1.21 19.87 3.11 27 8.23 30.82 30.19 41.46 57.85 51.68 22.49 8.31 45.69 14.67 69 20.2l46 11.24c62.32 14.78 132.78 30.58 168.55 89.88 7.62 12.63 12.11 23.89 16.16 38 3.14 10.94 7.16 33.8 7.29 45 0.34 29.47 0.7 52.47-9.08 81-3.8 11.1-10.07 24.28-16.59 34-31.58 47.09-85.46 68.16-139.33 77.08-15.75 2.61-32.04 4.74-48 4.92l-15 1h-34l-21-1-22-1.83c-44.14-4.28-79.06-10.76-122-21.8l-34-10.04c-3-0.99-11.59-3.12-13.4-5.03-1.95-2.04-1.59-5.66-1.6-8.3v-130h51c1.81 13.4 6.5 28.49 11.6 41zm-418.6-458h69l12 0.91c40.65 2.78 79.69 11.24 115 32.54 23.34 14.08 43.81 33.65 57.14 57.55 10.85 19.44 18.83 46.66 18.86 69v23c-0.23 19.68-7.19 44.46-15.97 62-12.48 24.94-34.41 47.54-58.03 62.19-33.94 21.03-72.43 31.13-112 33.9l-12 0.91h-42-84v194h96v30l-1 18-36-1h-68-220v-47h76v-488h-76v-48h281zm1176 0h66l20 1 10 0.91s42 4.84 42 4.84c37.1 6.19 73.77 16.59 107 34.56 17.47 9.45 35.26 21.55 50 34.86 47.26 42.68 71.95 100.5 79.72 162.83 2.43 19.5 3.31 39.36 3.28 59l-1 21c-0.14 11.67-3.43 33.12-5.58 45-12.47 69.06-47.22 126.96-106.42 166-42.56 28.06-93.68 43.14-144 49.15l-33 2.94-12 0.91h-62-159-72c-8.97 0-30.48-0.83-38 1l-1-18v-30h76v-489c-6.16 1.75-17.23 1-24 1h-43c-8.64-0.02-8.98-0.36-9-9v-39h256zm757 0v34l-1.02 12.4-7.98 1.6h-68v482h234v-92h54v145h-352-110-33l-21 1c0-10.09 0.91-40.14-1-48h76v-489l-26 1h-49v-48h305zm801 0v138h-55v-84h-249v187h155v-74h54v201h-54v-74h-155v236h257v-84h54v137h-368-115-36l-21 1v-48h76v-488h-76v-48h533zm-2786 71v50 174c34.19 0 73.74 3.62 104-15.06 32.78-20.24 49.24-53.43 52.96-90.94v-9l1-8-1-11v-9c-2.76-27.47-13.3-55.17-33.05-74.91-17.75-17.75-45.82-29.05-70.91-29.09h-33c-6.1 0-13.17 0.66-19-1l-1 24zm1377 424.83c24.39-22.06 39.03-57.47 46.87-88.83 5.67-22.68 8.62-45.74 10.22-69l0.91-10 1-22v-30l-1-17v-5l-0.91-10c-1.53-22.2-4.3-44.35-9.72-66-7.96-31.87-21.58-67.17-46.37-89.83-24.9-22.75-52.98-33.71-86-38.3-6.6-0.92-13.33-1.86-20-1.87h-71v488c63.72 0 124.75 6.19 176-40.17z" fill="#FFF"/>
</svg>
